<?xml version="1.0" encoding="UTF-8" standalone="no"?>
<svg
   xmlns:dc="http://purl.org/dc/elements/1.1/"
   xmlns:cc="http://creativecommons.org/ns#"
   xmlns:rdf="http://www.w3.org/1999/02/22-rdf-syntax-ns#"
   xmlns:svg="http://www.w3.org/2000/svg"
   xmlns="http://www.w3.org/2000/svg"
   xmlns:sodipodi="http://sodipodi.sourceforge.net/DTD/sodipodi-0.dtd"
   xmlns:inkscape="http://www.inkscape.org/namespaces/inkscape"
   width="700"
   height="700"
   viewBox="230 80 532.29167 574.58007"
   version="1.1"
   id="svg5"
   sodipodi:docname="buscape-logo.svg"
   style="fill:none"
   inkscape:version="0.92.4 (5da689c313, 2019-01-14)"
   inkscape:export-filename="C:\Users\suitedoalex\sites\buscape-logo-0.png"
   inkscape:export-xdpi="561.73712"
   inkscape:export-ydpi="561.73712">
  <metadata
     id="metadata11">
    <rdf:RDF>
      <cc:Work
         rdf:about="">
        <dc:format>image/svg+xml</dc:format>
        <dc:type
           rdf:resource="http://purl.org/dc/dcmitype/StillImage" />
        <dc:title></dc:title>
      </cc:Work>
    </rdf:RDF>
  </metadata>
  <defs
     id="defs9" />
  <sodipodi:namedview
     pagecolor="#ffffff"
     bordercolor="#666666"
     borderopacity="1"
     objecttolerance="10"
     gridtolerance="10"
     guidetolerance="10"
     inkscape:pageopacity="0"
     inkscape:pageshadow="2"
     inkscape:window-width="1600"
     inkscape:window-height="837"
     id="namedview7"
     showgrid="false"
     inkscape:zoom="0.23349255"
     inkscape:cx="733.50315"
     inkscape:cy="545.99493"
     inkscape:window-x="-8"
     inkscape:window-y="-8"
     inkscape:window-maximized="1"
     inkscape:current-layer="svg5" />
  <rect
     style="fill:#ffc500;fill-opacity:1;fill-rule:evenodd;stroke-width:58.03023911"
     id="rect818"
     width="495.19424"
     height="230.36012"
     x="248.54871"
     y="691.64777"
     inkscape:export-filename="C:\Users\suitedoalex\sites\buscape-logo-2.png"
     inkscape:export-xdpi="229.14514"
     inkscape:export-ydpi="229.14514" />
  <g
     id="logo"
     transform="matrix(0.31422148,0,0,0.31422148,194.49323,666.52794)"
     inkscape:export-filename="C:\Users\suitedoalex\sites\buscape-logo-2.png"
     inkscape:export-xdpi="229.14514"
     inkscape:export-ydpi="229.14514">
    <path
       id="buscape"
       d="M 282.687,247.006 282.02,247 l -0.579,0.005 C 262.368,247.314 247,262.873 247,282.02 v 164.27 l 0.013,1.648 c 0.88,54.28 45.157,98.012 99.647,98.012 55.01,0 99.61,-44.57 99.66,-99.57 -0.05,-54.84 -37.45,-99.75 -90.76,-99.75 -24.39,0 -43.89,9.66 -56.88,25.49 l 17.6,-82.82 0.131,-0.647 c 4.127,-21.329 -12,-41.247 -33.724,-41.647 z m 855.523,99.634 c 54.49,0 98.77,43.732 99.65,98.012 l 0.01,1.648 v 95.67 c 0,2.143 -1.68,3.882 -3.79,3.985 l -0.2,0.005 h -41.86 c -2.14,0 -3.88,-1.683 -3.99,-3.791 v -0.199 -23.91 l -0.56,0.83 -0.39,0.501 c -12.97,16.474 -32.83,26.559 -57.77,26.559 -53.31,0 -90.71,-44.91 -90.76,-99.74 0.05,-55 44.65,-99.57 99.66,-99.57 z m 222.48,0 c 55.01,0 99.61,44.57 99.66,99.58 -0.04,54.83 -37.44,99.74 -90.76,99.74 -24.15,0 -43.5,-9.468 -56.49,-25.017 l -0.39,-0.473 17.6,82.82 c 4.63,21.78 -11.99,42.3 -34.26,42.3 -19.15,0 -34.71,-15.368 -35.02,-34.441 V 610.57 446.3 c 0,-55.04 44.62,-99.66 99.66,-99.66 z m -415.18,-0.02 c 35.39,0 66.45,18.45 84.12,46.23 1.19,1.87 0.67,4.331 -1.17,5.528 l -0.18,0.112 -36.33,20.98 c -1.8,1.04 -4.1,0.51 -5.27,-1.21 -8.95,-13.17 -24.04,-21.81 -41.18,-21.81 -28.58,0 -51.52,24.06 -49.73,53 1.5,24.14 20.64,44.05 44.71,46.41 19.14,1.88 36.38,-7.11 46.18,-21.52 1.141,-1.672 3.328,-2.242 5.107,-1.33 l 0.183,0.1 36.32,20.96 c 1.98,1.14 2.58,3.7 1.37,5.64 -18.66,29.34 -52.26,48.28 -90.12,46.06 -50.78,-2.98 -91.62,-44.7 -93.59,-95.53 -2.2,-56.84 43.21,-103.62 99.58,-103.62 z m -429.445,3.791 c -0.103,-2.108 -1.842,-3.791 -3.985,-3.791 h -41.86 l -0.199,0.005 c -2.108,0.103 -3.791,1.842 -3.791,3.985 v 102.65 l 0.013,1.548 c 0.835,50.994 42.856,91.973 94.257,91.122 50.82,-0.85 91.1,-43.37 91.1,-94.19 V 350.61 l -0.003,-0.199 c -0.086,-2.108 -1.834,-3.791 -3.967,-3.791 h -41.86 l -0.199,0.005 c -2.108,0.103 -3.791,1.842 -3.791,3.985 v 101.63 l -0.005,0.696 c -0.357,22.938 -18.297,42.342 -41.285,43.154 -24.38,0.87 -44.42,-18.64 -44.42,-42.83 V 350.61 Z M 747.67,346.62 c 38.25,0 62.18,17.05 74.36,37.29 1.124,1.86 0.521,4.274 -1.3,5.423 l -0.18,0.107 -33.02,18.55 c -1.91,1.07 -4.29,0.37 -5.41,-1.51 -6.77,-11.33 -19.41,-16.71 -33.31,-16.71 -13.36,0 -23.29,6.49 -23.29,16.42 0,11.303 14.218,15.079 32.133,18.946 l 2.936,0.63 2.991,0.638 3.035,0.654 c 29.019,6.312 62.761,15.776 62.755,56.252 0,38.18 -37.03,62.62 -80.18,62.62 -37.61,0 -64.4,-13.27 -80.36,-39.14 -1.162,-1.879 -0.608,-4.331 1.237,-5.501 l 0.183,-0.109 33.12,-18.61 c 1.86,-1.04 4.2,-0.43 5.33,1.38 8.07,12.91 20.17,18.46 37.82,18.46 17.57,0 28.64,-6.88 28.64,-17.95 0,-10.998 -13.46,-14.622 -30.689,-18.158 l -4.381,-0.886 -2.99,-0.602 c -29.646,-5.986 -65.8,-14.455 -65.8,-57.484 0,-33.98 29.79,-60.71 76.37,-60.71 z m 924.66,97.268 c -0.78,-53.438 -39.97,-97.278 -97.38,-97.278 -57.96,0 -97.39,44.73 -97.39,98.9 0,59.88 43.97,100.42 102.31,100.42 36.25,0 65.26,-16.01 82.44,-44.36 1.17,-1.93 0.56,-4.44 -1.39,-5.57 l -33.37,-19.27 -0.19,-0.102 c -1.77,-0.901 -3.94,-0.359 -5.07,1.302 -9.35,13.75 -24.76,21.41 -42.8,21.41 -26.89,0 -46.22,-16.66 -50.01,-41.68 h 138.87 l 0.2,-0.005 c 2.11,-0.103 3.79,-1.842 3.79,-3.985 v -8.16 z M 1360.69,396.47 c -27.52,0 -49.83,22.31 -49.83,49.83 0,27.52 22.31,49.83 49.83,49.83 27.52,0 49.83,-22.31 49.83,-49.83 0,-27.52 -22.31,-49.83 -49.83,-49.83 z m -272.31,49.83 c 0,-27.52 22.31,-49.83 49.83,-49.83 27.52,0 49.83,22.31 49.83,49.83 0,27.52 -22.31,49.83 -49.83,49.83 -27.52,0 -49.83,-22.31 -49.83,-49.83 z M 346.67,396.45 c -27.52,0 -49.83,22.31 -49.83,49.83 0,27.52 22.31,49.83 49.83,49.83 27.51,0 49.83,-22.31 49.83,-49.83 0,-27.52 -22.31,-49.83 -49.83,-49.83 z m 1185.21,30.689 c 4.09,-19.118 19.89,-34.319 43.71,-34.319 23.26,0 39.54,15.13 41.88,34.9 h -85.71 z"
       inkscape:connector-curvature="0"
       style="clip-rule:evenodd;fill:#000000;fill-rule:evenodd" />
    <path
       id="acento"
       d="m 1636.74,296.82 c 0,13.72 -11.12,24.84 -24.84,24.84 h -82.57 c -8.93,0 -16.16,-7.24 -16.16,-16.16 0,-7.63 5.34,-14.22 12.8,-15.81 l 80.77,-17.17 c 15.45,-3.29 30,8.5 30,24.3 z"
       inkscape:connector-curvature="0"
       style="fill:#ff511c" />
  </g>
  <g
     style="fill:none"
     id="logo-3"
     transform="matrix(0.30618486,0,0,0.30618486,202.30941,230.64126)"
     inkscape:export-filename="C:\Users\suitedoalex\sites\buscape-logo-3.png"
     inkscape:export-xdpi="260.00641"
     inkscape:export-ydpi="260.00641">
    <path
       id="buscape-1"
       d="M 282.687,247.006 282.02,247 l -0.579,0.005 C 262.368,247.314 247,262.873 247,282.02 v 164.27 l 0.013,1.648 c 0.88,54.28 45.157,98.012 99.647,98.012 55.01,0 99.61,-44.57 99.66,-99.57 -0.05,-54.84 -37.45,-99.75 -90.76,-99.75 -24.39,0 -43.89,9.66 -56.88,25.49 l 17.6,-82.82 0.131,-0.647 c 4.127,-21.329 -12,-41.247 -33.724,-41.647 z m 855.523,99.634 c 54.49,0 98.77,43.732 99.65,98.012 l 0.01,1.648 v 95.67 c 0,2.143 -1.68,3.882 -3.79,3.985 l -0.2,0.005 h -41.86 c -2.14,0 -3.88,-1.683 -3.99,-3.791 v -0.199 -23.91 l -0.56,0.83 -0.39,0.501 c -12.97,16.474 -32.83,26.559 -57.77,26.559 -53.31,0 -90.71,-44.91 -90.76,-99.74 0.05,-55 44.65,-99.57 99.66,-99.57 z m 222.48,0 c 55.01,0 99.61,44.57 99.66,99.58 -0.04,54.83 -37.44,99.74 -90.76,99.74 -24.15,0 -43.5,-9.468 -56.49,-25.017 l -0.39,-0.473 17.6,82.82 c 4.63,21.78 -11.99,42.3 -34.26,42.3 -19.15,0 -34.71,-15.368 -35.02,-34.441 V 610.57 446.3 c 0,-55.04 44.62,-99.66 99.66,-99.66 z m -415.18,-0.02 c 35.39,0 66.45,18.45 84.12,46.23 1.19,1.87 0.67,4.331 -1.17,5.528 l -0.18,0.112 -36.33,20.98 c -1.8,1.04 -4.1,0.51 -5.27,-1.21 -8.95,-13.17 -24.04,-21.81 -41.18,-21.81 -28.58,0 -51.52,24.06 -49.73,53 1.5,24.14 20.64,44.05 44.71,46.41 19.14,1.88 36.38,-7.11 46.18,-21.52 1.141,-1.672 3.328,-2.242 5.107,-1.33 l 0.183,0.1 36.32,20.96 c 1.98,1.14 2.58,3.7 1.37,5.64 -18.66,29.34 -52.26,48.28 -90.12,46.06 -50.78,-2.98 -91.62,-44.7 -93.59,-95.53 -2.2,-56.84 43.21,-103.62 99.58,-103.62 z m -429.445,3.791 c -0.103,-2.108 -1.842,-3.791 -3.985,-3.791 h -41.86 l -0.199,0.005 c -2.108,0.103 -3.791,1.842 -3.791,3.985 v 102.65 l 0.013,1.548 c 0.835,50.994 42.856,91.973 94.257,91.122 50.82,-0.85 91.1,-43.37 91.1,-94.19 V 350.61 l -0.003,-0.199 c -0.086,-2.108 -1.834,-3.791 -3.967,-3.791 h -41.86 l -0.199,0.005 c -2.108,0.103 -3.791,1.842 -3.791,3.985 v 101.63 l -0.005,0.696 c -0.357,22.938 -18.297,42.342 -41.285,43.154 -24.38,0.87 -44.42,-18.64 -44.42,-42.83 V 350.61 Z M 747.67,346.62 c 38.25,0 62.18,17.05 74.36,37.29 1.124,1.86 0.521,4.274 -1.3,5.423 l -0.18,0.107 -33.02,18.55 c -1.91,1.07 -4.29,0.37 -5.41,-1.51 -6.77,-11.33 -19.41,-16.71 -33.31,-16.71 -13.36,0 -23.29,6.49 -23.29,16.42 0,11.303 14.218,15.079 32.133,18.946 l 2.936,0.63 2.991,0.638 3.035,0.654 c 29.019,6.312 62.761,15.776 62.755,56.252 0,38.18 -37.03,62.62 -80.18,62.62 -37.61,0 -64.4,-13.27 -80.36,-39.14 -1.162,-1.879 -0.608,-4.331 1.237,-5.501 l 0.183,-0.109 33.12,-18.61 c 1.86,-1.04 4.2,-0.43 5.33,1.38 8.07,12.91 20.17,18.46 37.82,18.46 17.57,0 28.64,-6.88 28.64,-17.95 0,-10.998 -13.46,-14.622 -30.689,-18.158 l -4.381,-0.886 -2.99,-0.602 c -29.646,-5.986 -65.8,-14.455 -65.8,-57.484 0,-33.98 29.79,-60.71 76.37,-60.71 z m 924.66,97.268 c -0.78,-53.438 -39.97,-97.278 -97.38,-97.278 -57.96,0 -97.39,44.73 -97.39,98.9 0,59.88 43.97,100.42 102.31,100.42 36.25,0 65.26,-16.01 82.44,-44.36 1.17,-1.93 0.56,-4.44 -1.39,-5.57 l -33.37,-19.27 -0.19,-0.102 c -1.77,-0.901 -3.94,-0.359 -5.07,1.302 -9.35,13.75 -24.76,21.41 -42.8,21.41 -26.89,0 -46.22,-16.66 -50.01,-41.68 h 138.87 l 0.2,-0.005 c 2.11,-0.103 3.79,-1.842 3.79,-3.985 v -8.16 z M 1360.69,396.47 c -27.52,0 -49.83,22.31 -49.83,49.83 0,27.52 22.31,49.83 49.83,49.83 27.52,0 49.83,-22.31 49.83,-49.83 0,-27.52 -22.31,-49.83 -49.83,-49.83 z m -272.31,49.83 c 0,-27.52 22.31,-49.83 49.83,-49.83 27.52,0 49.83,22.31 49.83,49.83 0,27.52 -22.31,49.83 -49.83,49.83 -27.52,0 -49.83,-22.31 -49.83,-49.83 z M 346.67,396.45 c -27.52,0 -49.83,22.31 -49.83,49.83 0,27.52 22.31,49.83 49.83,49.83 27.51,0 49.83,-22.31 49.83,-49.83 0,-27.52 -22.31,-49.83 -49.83,-49.83 z m 1185.21,30.689 c 4.09,-19.118 19.89,-34.319 43.71,-34.319 23.26,0 39.54,15.13 41.88,34.9 h -85.71 z"
       inkscape:connector-curvature="0"
       style="clip-rule:evenodd;fill:#000000;fill-rule:evenodd" />
    <path
       id="acento-8"
       d="m 1636.74,296.82 c 0,13.72 -11.12,24.84 -24.84,24.84 h -82.57 c -8.93,0 -16.16,-7.24 -16.16,-16.16 0,-7.63 5.34,-14.22 12.8,-15.81 l 80.77,-17.17 c 15.45,-3.29 30,8.5 30,24.3 z"
       inkscape:connector-curvature="0"
       style="fill:#ff511c" />
  </g>
</svg>
