<?xml version="1.0" encoding="UTF-8" standalone="no"?>
<svg
   xmlns:dc="http://purl.org/dc/elements/1.1/"
   xmlns:cc="http://creativecommons.org/ns#"
   xmlns:rdf="http://www.w3.org/1999/02/22-rdf-syntax-ns#"
   xmlns:svg="http://www.w3.org/2000/svg"
   xmlns="http://www.w3.org/2000/svg"
   xmlns:sodipodi="http://sodipodi.sourceforge.net/DTD/sodipodi-0.dtd"
   xmlns:inkscape="http://www.inkscape.org/namespaces/inkscape"
   width="700"
   height="700"
   viewBox="0 0 700 700"
   version="1.1"
   id="svg37"
   sodipodi:docname="mercado-livre-logo-2022.svg"
   style="fill:none"
   inkscape:version="0.92.4 (5da689c313, 2019-01-14)"
   inkscape:export-filename="C:\Users\suitedoalex\sites\mercado-livre-logo-0.png"
   inkscape:export-xdpi="561.73712"
   inkscape:export-ydpi="561.73712">
  <metadata
     id="metadata41">
    <rdf:RDF>
      <cc:Work
         rdf:about="">
        <dc:format>image/svg+xml</dc:format>
        <dc:type
           rdf:resource="http://purl.org/dc/dcmitype/StillImage" />
        <dc:title></dc:title>
      </cc:Work>
    </rdf:RDF>
  </metadata>
  <sodipodi:namedview
     pagecolor="#ffffff"
     bordercolor="#666666"
     borderopacity="1"
     objecttolerance="10"
     gridtolerance="10"
     guidetolerance="10"
     inkscape:pageopacity="0"
     inkscape:pageshadow="2"
     inkscape:window-width="1920"
     inkscape:window-height="1017"
     id="namedview39"
     showgrid="false"
     inkscape:zoom="0.77830851"
     inkscape:cx="239.58563"
     inkscape:cy="367.46986"
     inkscape:window-x="-8"
     inkscape:window-y="-8"
     inkscape:window-maximized="1"
     inkscape:current-layer="svg37" />
  <g
     clip-path="url(#clip0_4875_29553)"
     id="g30"
     transform="matrix(3.8022868,0,0,3.8022868,76.174083,280.3883)"
     inkscape:export-filename="C:\Users\suitedoalex\sites\mercado-livre-logo-4.png"
     inkscape:export-xdpi="70.148933"
     inkscape:export-ydpi="70.148933">
    <path
       d="M 52.8971,17.1088 C 52.8195,7.62691 41.0754,3.09961e-6 26.6489,3.09961e-6 H 26.3063 C 21.6362,-0.00190282 17.0075,0.875161 12.6619,2.5854 5.35814,5.50043 0.381255,10.6712 0.0322266,16.5982 c 0,0.1681 0,0.3297 0,0.4913 0,0.1615 0,0.1486 0,0.2197 v 0.0776 c 0,0.0452 0,0.0969 0,0.1422 v 0.7885 c 0,0 0,0.0647 0,0.1034 v 0.1164 c 0,0.1357 0,0.2714 0,0.4007 0,0.1293 0,0.2456 0,0.362 C 0.31662,24.0248 2.87616,28.3101 7.30365,31.4449 12.1189,34.8511 18.6471,36.6157 26.1964,36.6157 h 0.4072 c 7.7562,-0.0647 14.4136,-1.9714 19.2418,-5.5134 4.5891,-3.3739 7.1098,-8.0018 7.0581,-13.0304 z"
       id="path2"
       inkscape:connector-curvature="0"
       style="fill:#2d3277" />
    <path
       d="m 23.8636,24.4837 c 0.2364,-0.0987 0.4876,-0.1576 0.7433,-0.1745 0.2797,-0.0517 0.5674,-0.0412 0.8427,0.0307 0.2753,0.0719 0.5313,0.2035 0.75,0.3855 0.2187,0.182 0.3947,0.4098 0.5155,0.6674 0.1207,0.2576 0.1833,0.5387 0.1833,0.8232 0,0.2845 -0.0626,0.5655 -0.1833,0.8231 -0.1208,0.2576 -0.2968,0.4854 -0.5155,0.6674 -0.2187,0.182 -0.4747,0.3136 -0.75,0.3855 -0.2753,0.0719 -0.563,0.0824 -0.8427,0.0307 v 0 c -0.4886,0.0038 -0.9596,-0.182 -1.314,-0.5183 -0.3544,-0.3363 -0.5646,-0.7969 -0.5863,-1.285 0,-0.4331 -0.2521,-0.4977 -0.3878,-0.4977 -0.0685,0.0044 -0.1353,0.0227 -0.1964,0.0538 -0.0611,0.0311 -0.1153,0.0744 -0.1591,0.1272 -0.2294,0.246 -0.5435,0.3961 -0.879,0.4201 -0.2093,-6e-4 -0.4162,-0.0446 -0.6076,-0.1293 -0.3266,-0.0866 -0.6104,-0.2893 -0.7983,-0.57 -0.188,-0.2808 -0.2672,-0.6204 -0.2229,-0.9554 0.017,-0.0661 0.0177,-0.1354 0.0019,-0.2018 -0.0158,-0.0665 -0.0475,-0.1281 -0.0924,-0.1795 -0.0601,-0.0536 -0.134,-0.0895 -0.2133,-0.1034 -0.0612,-0.0074 -0.1232,-0.002 -0.1821,0.0158 -0.059,0.0178 -0.1136,0.0476 -0.1605,0.0876 -0.2681,0.2294 -0.5949,0.3794 -0.9437,0.4331 -0.1694,-0.0056 -0.3371,-0.0361 -0.4976,-0.0905 -0.4608,-0.1451 -0.8522,-0.4543 -1.1001,-0.869 -0.2478,-0.4146 -0.3348,-0.9058 -0.2444,-1.3803 0.0193,-0.0667 0.0178,-0.1375 -0.0041,-0.2033 -0.0219,-0.0658 -0.0633,-0.1234 -0.1187,-0.1651 -0.168,-0.1035 -0.3296,0.0517 -0.433,0.1551 -0.1171,0.1149 -0.2589,0.2015 -0.4147,0.253 -0.1557,0.0516 -0.3212,0.0667 -0.4837,0.0443 -0.3889,-0.0279 -0.754,-0.1972 -1.0267,-0.4758 -0.2727,-0.2786 -0.434,-0.6473 -0.4535,-1.0367 -0.0017,-0.1901 0.0341,-0.3787 0.1053,-0.555 0.0712,-0.1763 0.1764,-0.3369 0.3096,-0.4725 0.1333,-0.1357 0.2919,-0.2437 0.4669,-0.3181 0.1751,-0.0743 0.363,-0.1134 0.5531,-0.1151 0.3333,-0.0427 0.6703,0.0421 0.9436,0.2375 0.2734,0.1954 0.4627,0.4869 0.5301,0.816 0,0 0,0.0582 0,0.0905 0,0.0323 0.0388,0.2909 0.1874,0.3361 0.1487,0.0453 0.2715,-0.1034 0.3426,-0.2133 0.0134,-0.0262 0.0309,-0.0502 0.0517,-0.0711 l 0.0453,-0.0581 c 0.1804,-0.2602 0.4292,-0.4654 0.7189,-0.5931 0.2897,-0.1278 0.609,-0.173 0.9228,-0.1308 0.2186,0.0051 0.4358,0.0377 0.6463,0.0969 0.3064,0.1091 0.5687,0.3152 0.7472,0.587 0.1785,0.2719 0.2634,0.5945 0.2417,0.919 -0.0017,0.0949 0.0339,0.1867 0.0992,0.2556 0.0653,0.0689 0.155,0.1094 0.2499,0.1128 v 0 c 0.0584,-0.0043 0.1154,-0.0202 0.1675,-0.0469 0.0522,-0.0266 0.0985,-0.0634 0.1363,-0.1082 0.1369,-0.169 0.3065,-0.3088 0.4986,-0.4109 0.1921,-0.1022 0.4028,-0.1647 0.6195,-0.1837 0.2833,0.0023 0.5629,0.064 0.8209,0.1809 1.3896,0.5817 0.7627,2.3592 0.7562,2.3786 -0.084,0.2068 -0.2197,0.5559 0.0711,0.7433 l 0.0582,0.0323 h 0.1163 c 0.107,-0.0087 0.2118,-0.0349 0.3103,-0.0776 z"
       id="path4"
       inkscape:connector-curvature="0"
       style="fill:#ffffff" />
    <path
       d="M 51.4621,15.06 C 47.7504,15.926 44.1279,17.1378 40.6422,18.6795 38.1409,16.5336 32.356,11.5697 30.7919,10.4386 30.165,9.92301 29.4546,9.51858 28.6912,9.24282 28.3504,9.13598 27.9948,9.08363 27.6377,9.08769 27.1978,9.10196 26.7623,9.18035 26.345,9.32038 25.2307,9.78798 24.2053,10.4439 23.3136,11.2594 l -0.0582,0.0453 c -0.8855,0.7174 -1.7968,1.4543 -2.469,1.6094 -0.2986,0.0715 -0.6044,0.1084 -0.9114,0.1099 v 0 c -0.5761,0.0445 -1.1485,-0.1233 -1.6094,-0.4719 0.0183,-0.0399 0.0422,-0.0769 0.0711,-0.1099 l 2.1782,-2.3914 c 1.687,-1.71287 3.277,-3.32874 6.9612,-3.44509 h 0.181 c 1.6796,0.04714 3.3335,0.42492 4.867,1.11172 2.1191,1.02957 4.4436,1.56651 6.7996,1.57064 2.5238,-0.05957 5.0047,-0.666 7.2714,-1.77746 2.5078,2.16526 4.253,4.73769 4.867,7.54939 z"
       id="path6"
       inkscape:connector-curvature="0"
       style="fill:#ffffff" />
    <path
       d="m 26.3193,1.17643 h 0.3296 c 3.483,-0.01013 6.9505,0.46409 10.3028,1.40904 l 0.2198,0.06463 0.4524,0.1422 c 2.7604,0.84797 5.3678,2.13095 7.7239,3.80053 -1.9156,0.85916 -3.9834,1.32721 -6.0822,1.37672 h -0.084 C 37.0569,7.95508 34.9626,7.46245 33.0542,6.5282 31.3588,5.77061 29.5325,5.34916 27.6766,5.28721 H 27.3922 C 25.1439,5.27298 22.9643,6.06139 21.2454,7.51065 20.21,7.57806 19.1872,7.77566 18.2011,8.09882 17.527,8.3311 16.8249,8.4724 16.1134,8.51895 H 15.3895 15.2667 C 12.7194,8.09314 10.2178,7.42878 7.79492,6.53466 12.565,3.15425 19.287,1.21521 26.3193,1.17643 Z"
       id="path8"
       inkscape:connector-curvature="0"
       style="fill:#ffd100" />
    <path
       d="M 6.59885,7.43945 C 9.94693,8.77739 13.825,9.72753 15.0014,9.79216 h 0.2585 c 0.2715,0 0.5494,0 0.8273,0.03232 0.8385,-0.04509 1.6669,-0.20382 2.4626,-0.47184 0.3297,-0.09695 0.6464,-0.18744 0.976,-0.27147 l -0.0452,0.05171 -2.2105,2.43032 c -0.1905,0.1757 -0.3238,0.4046 -0.3826,0.657 -0.0588,0.2524 -0.0404,0.5167 0.0529,0.7585 0.1397,0.2978 0.3646,0.5475 0.6464,0.7174 0.7515,0.4256 1.6058,0.6358 2.469,0.6076 0.3306,7e-4 0.6602,-0.0361 0.9825,-0.1099 0.963,-0.2262 1.939,-1.0212 3.0055,-1.8744 0.8385,-0.7388 1.7985,-1.327 2.8375,-1.7387 0.2511,-0.0668 0.5093,-0.1037 0.7691,-0.1099 h 0.1939 c 0.7909,0.1274 1.53,0.4746 2.133,1.0019 1.7516,1.2927 9.2363,7.7562 10.1024,8.4671 0.1427,0.1353 0.2555,0.2989 0.3312,0.4803 0.0757,0.1815 0.1126,0.3767 0.1083,0.5733 -0.0146,0.1873 -0.0739,0.3683 -0.1728,0.528 -0.099,0.1597 -0.2348,0.2933 -0.396,0.3898 -0.2886,0.1962 -0.6271,0.3061 -0.9759,0.3167 -0.2919,-5e-4 -0.5781,-0.081 -0.8274,-0.2327 l -0.2068,-0.181 c -0.6916,-0.6463 -2.7922,-2.5013 -3.6583,-3.2317 -0.1532,-0.1666 -0.3628,-0.2703 -0.5882,-0.2909 -0.0647,-7e-4 -0.1287,0.0135 -0.187,0.0415 -0.0583,0.028 -0.1093,0.0691 -0.1491,0.1201 -0.1939,0.2456 -0.0905,0.5882 0.2521,0.8726 l 3.2834,3.2317 c 0.2121,0.2046 0.3526,0.472 0.4007,0.7627 0.0122,0.2465 -0.0465,0.4913 -0.1691,0.7055 -0.1225,0.2141 -0.3038,0.3888 -0.5224,0.5032 -0.3093,0.2246 -0.6781,0.3528 -1.0601,0.3684 -0.2838,2e-4 -0.5618,-0.0805 -0.8014,-0.2327 L 34.2367,24.1799 C 33.39,23.359 32.511,22.5123 31.8646,21.9823 31.7081,21.8249 31.5032,21.7247 31.2829,21.6979 v 0 c -0.061,-0.0012 -0.1214,0.0109 -0.1772,0.0355 -0.0559,0.0246 -0.1056,0.061 -0.146,0.1067 -0.0905,0.1034 -0.2068,0.3361 0.0517,0.6463 0.0533,0.069 0.1116,0.1338 0.1745,0.194 l 2.3915,2.6435 c 0.1167,0.124 0.1864,0.2849 0.197,0.4549 0.0106,0.1699 -0.0385,0.3383 -0.1388,0.4759 l -0.0711,0.0969 c -0.0711,0.0776 -0.1422,0.1422 -0.2068,0.2004 -0.3037,0.2268 -0.6747,0.3451 -1.0536,0.3361 -0.0966,0.0103 -0.1941,0.0103 -0.2908,0 -0.2715,-0.0453 -0.3491,-0.1099 -0.3749,-0.1422 L 31.5608,26.6683 C 30.8827,25.9597 30.1663,25.2887 29.415,24.6582 29.2667,24.505 29.0706,24.407 28.8591,24.3802 v 0 c -0.0626,0.002 -0.1242,0.0168 -0.1809,0.0435 -0.0567,0.0267 -0.1073,0.0647 -0.1487,0.1117 -0.2004,0.2197 -0.1099,0.5494 0.2262,0.8661 l 1.8033,2.0037 c -0.0452,0.0711 -0.2456,0.2908 -0.9372,0.3813 -0.0882,0.0064 -0.1768,0.0064 -0.265,0 -0.6148,-0.0339 -1.2148,-0.2016 -1.7581,-0.4912 0.1552,-0.384 0.2343,-0.7945 0.2327,-1.2087 -0.0084,-0.8328 -0.3425,-1.6293 -0.9308,-2.2188 -0.5884,-0.5895 -1.3841,-0.9253 -2.2169,-0.9354 0.0345,-0.5665 -0.1065,-1.1298 -0.4037,-1.6133 -0.2973,-0.4834 -0.7364,-0.8635 -1.2574,-1.0884 -0.4083,-0.1772 -0.8477,-0.2716 -1.2927,-0.2779 -0.2877,-7e-4 -0.5737,0.0451 -0.8467,0.1357 -0.34,-0.571 -0.8784,-0.9967 -1.5125,-1.1957 -0.364,-0.1338 -0.75,-0.1974 -1.1376,-0.1875 -0.5889,-0.0031 -1.1652,0.1702 -1.6546,0.4977 -0.2519,-0.2798 -0.56,-0.5033 -0.9041,-0.6559 -0.3442,-0.1525 -0.7167,-0.2308 -1.0931,-0.2296 v 0 c -0.6709,0.0029 -1.3164,0.2565 -1.8098,0.711 C 12.0023,18.4855 9.42986,16.986 2.97284,15.577 2.68198,15.5123 2.04856,15.3378 1.51855,15.1892 2.06149,12.3711 3.83248,9.69521 6.59885,7.43945 Z"
       id="path10"
       inkscape:connector-curvature="0"
       style="fill:#ffffff" />
    <path
       d="m 51.6818,18.1496 c 0,0.2111 -0.0258,0.4266 -0.0775,0.6463 -0.5688,3.6648 -3.0573,7.1099 -7.1616,9.7534 -4.7506,3.096 -11.0913,4.8347 -17.8457,4.8929 h -0.3425 c -13.7866,0 -25.00078,-7.1098 -25.07188,-15.9325 0,-0.2779 0,-0.5882 0.03878,-0.9307 l 1.40258,0.3231 c 6.36007,1.3574 8.73862,2.7923 9.33322,3.2318 -0.1063,0.2964 -0.1588,0.6094 -0.1551,0.9242 0.0051,0.7184 0.2941,1.4055 0.8038,1.9117 0.5098,0.5061 1.199,0.7901 1.9174,0.7901 0.1226,0.0096 0.2458,0.0096 0.3684,0 0.1284,0.5019 0.3792,0.9641 0.73,1.3454 0.3508,0.3812 0.7906,0.6696 1.2801,0.8392 0.4643,0.1832 0.9716,0.2281 1.4608,0.1293 0.3378,0.6727 0.9244,1.1873 1.6352,1.4349 0.3461,0.1355 0.7143,0.2056 1.0859,0.2068 0.2202,-0.0146 0.4375,-0.0581 0.6463,-0.1292 0.2577,0.5413 0.6633,0.9985 1.1701,1.3188 0.5067,0.3203 1.0938,0.4905 1.6933,0.4909 v 0 c 0.8155,-0.013 1.5959,-0.334 2.1846,-0.8984 0.7786,0.4221 1.6425,0.663 2.5272,0.7045 0.1364,-6e-4 0.2725,-0.0114 0.4072,-0.0323 0.3546,-0.0123 0.7023,-0.1013 1.0192,-0.2609 0.3169,-0.1595 0.5954,-0.3859 0.8165,-0.6634 l 0.0581,-0.084 c 0.2409,0.0614 0.4883,0.094 0.7369,0.097 0.6343,-0.0214 1.2445,-0.2482 1.7387,-0.6464 0.4824,-0.337 0.8375,-0.8265 1.0083,-1.3896 h 0.4201 c 0.6369,-0.0145 1.2552,-0.2169 1.7775,-0.5817 0.3758,-0.22 0.6909,-0.5302 0.9167,-0.9027 0.2257,-0.3724 0.3549,-0.7953 0.376,-1.2303 0.1334,0.0097 0.2673,0.0097 0.4007,0 0.5956,-0.0108 1.175,-0.195 1.6676,-0.53 0.3329,-0.2087 0.6118,-0.4932 0.814,-0.8301 0.2022,-0.337 0.3219,-0.717 0.3494,-1.1089 0.0301,-0.4789 -0.0705,-0.957 -0.2909,-1.3832 3.276,-1.3448 6.6542,-2.4255 10.1025,-3.2318 0,0.2844 0.0517,0.5624 0.0517,0.8532 0,0.2909 0.0258,0.6011 0.0064,0.8726 z"
       id="path12"
       inkscape:connector-curvature="0"
       style="fill:#ffd100" />
    <path
       d="m 142.598,6.33421 c -0.948,-1.18928 -2.392,-1.78392 -4.331,-1.78392 -1.939,0 -3.382,0.59464 -4.33,1.78392 -0.927,1.21822 -1.428,2.70644 -1.428,4.23679 0,1.5304 0.501,3.0186 1.428,4.2368 0.948,1.1721 2.391,1.7581 4.33,1.7581 1.939,0 3.383,-0.5925 4.331,-1.7774 0.926,-1.2183 1.427,-2.7065 1.427,-4.2369 0,-1.53034 -0.501,-3.01856 -1.427,-4.23678 z m -2.353,6.83839 c -0.246,0.2878 -0.551,0.5189 -0.895,0.6774 -0.343,0.1584 -0.717,0.2405 -1.096,0.2405 -0.378,0 -0.752,-0.0821 -1.096,-0.2405 -0.344,-0.1585 -0.649,-0.3896 -0.895,-0.6774 -0.453,-0.7944 -0.691,-1.6933 -0.691,-2.608 0,-0.91474 0.238,-1.81364 0.691,-2.60806 0.246,-0.28781 0.551,-0.51891 0.895,-0.67737 0.344,-0.15847 0.718,-0.24054 1.096,-0.24054 0.379,0 0.753,0.08207 1.096,0.24054 0.344,0.15846 0.649,0.38956 0.895,0.67737 0.453,0.79442 0.692,1.69332 0.692,2.60806 0,0.9147 -0.239,1.8136 -0.692,2.608 z"
       id="path14"
       inkscape:connector-curvature="0"
       style="fill:#2d3277" />
    <path
       d="m 118.256,5.33872 c -1.028,-0.50599 -2.163,-0.75863 -3.309,-0.73683 -1.939,0 -3.232,0.49768 -4.046,1.49306 -0.517,0.7122 -0.808,1.56355 -0.834,2.4432 h 2.857 c 0.044,-0.37824 0.189,-0.73763 0.42,-1.04063 0.198,-0.18947 0.434,-0.33383 0.693,-0.4231 0.259,-0.08927 0.534,-0.12133 0.806,-0.09398 0.495,-0.02957 0.99,0.06137 1.442,0.26501 0.163,0.09654 0.296,0.23792 0.382,0.40743 0.086,0.16951 0.122,0.36007 0.103,0.54916 -0.003,0.19104 -0.067,0.3761 -0.184,0.52754 -0.116,0.15144 -0.279,0.26114 -0.463,0.31272 -0.381,0.13878 -0.779,0.22573 -1.183,0.25853 l -1.014,0.12928 c -0.9,0.07783 -1.777,0.32336 -2.586,0.72389 -0.526,0.3005 -0.957,0.7428 -1.244,1.2765 -0.287,0.5337 -0.418,1.1373 -0.378,1.742 -0.027,0.4636 0.049,0.9274 0.224,1.3579 0.174,0.4304 0.442,0.8166 0.784,1.1305 0.733,0.5844 1.648,0.8931 2.586,0.8726 6.463,0.2908 6.379,-3.3998 6.463,-4.169 V 8.11801 c -0.071,-1.35733 -0.549,-2.28806 -1.519,-2.77929 z m -1.493,6.46348 c 0.035,0.3842 -0.025,0.771 -0.174,1.1269 -0.148,0.3559 -0.382,0.6701 -0.679,0.9156 -0.522,0.368 -1.145,0.5645 -1.784,0.5623 -0.373,0.0087 -0.738,-0.1099 -1.034,-0.3361 -0.153,-0.1362 -0.272,-0.3069 -0.346,-0.498 -0.074,-0.191 -0.102,-0.3969 -0.081,-0.6008 -0.012,-0.2534 0.047,-0.5051 0.17,-0.7268 0.123,-0.2216 0.306,-0.4042 0.528,-0.5271 0.429,-0.203 0.887,-0.3382 1.358,-0.4008 l 0.646,-0.1292 c 0.27,-0.0434 0.536,-0.1104 0.795,-0.2004 0.2,-0.0764 0.393,-0.1716 0.575,-0.2844 z"
       id="path16"
       inkscape:connector-curvature="0"
       style="fill:#2d3277" />
    <path
       d="m 103.545,7.13573 c 0.306,-0.02378 0.613,0.02534 0.896,0.14332 0.284,0.11798 0.535,0.30145 0.733,0.53534 0.239,0.33713 0.392,0.72768 0.446,1.13757 h 3.187 c -0.175,-1.60294 -0.737,-2.72759 -1.687,-3.36101 -1.1,-0.6754 -2.376,-1.00631 -3.665,-0.95013 -0.763,-0.04186 -1.526,0.08076 -2.238,0.35955 -0.711,0.27879 -1.3544,0.70724 -1.8858,1.25632 -1.0628,1.25907 -1.5977,2.88016 -1.4931,4.52441 -0.0696,1.5114 0.4102,2.9969 1.3509,4.1819 0.905,1.0794 2.307,1.6159 4.221,1.6159 0.826,0.0524 1.652,-0.0967 2.407,-0.4344 0.756,-0.3378 1.418,-0.8542 1.93,-1.5047 0.581,-0.7313 0.936,-1.6164 1.021,-2.5466 h -3.167 c -0.041,0.5274 -0.237,1.0311 -0.563,1.4478 -0.199,0.204 -0.443,0.3599 -0.711,0.4562 -0.269,0.0963 -0.556,0.1304 -0.84,0.0997 -0.455,0.0307 -0.907,-0.0902 -1.286,-0.344 -0.379,-0.2538 -0.663,-0.6261 -0.808,-1.0586 -0.229,-0.6377 -0.335,-1.3134 -0.31,-1.9907 -0.025,-0.70903 0.08,-1.41658 0.31,-2.08774 0.144,-0.45038 0.433,-0.84017 0.823,-1.10809 0.39,-0.26792 0.857,-0.39879 1.329,-0.37204 z"
       id="path18"
       inkscape:connector-curvature="0"
       style="fill:#2d3277" />
    <path
       d="m 96.9847,4.64087 c -6.541,0 -6.1532,5.81713 -6.1532,5.81713 v 5.8818 h 2.9667 V 10.82 C 93.7569,10.1352 93.8719,9.45005 94.1344,8.81628 94.548,8.04066 95.3366,7.65286 96.5258,7.65286 h 0.3555 c 0.1422,0 0.3038,-1e-5 0.4977,0.04524 V 4.67319 h -0.2585 z"
       id="path20"
       inkscape:connector-curvature="0"
       style="fill:#2d3277" />
    <path
       d="m 86.0804,13.2373 c -0.1135,0.1695 -0.2506,0.3219 -0.4072,0.4525 -0.4866,0.3338 -1.0728,0.4912 -1.6612,0.4459 -0.5511,0.033 -1.0997,-0.0974 -1.5771,-0.3748 -0.3864,-0.2566 -0.7001,-0.6085 -0.9107,-1.0218 -0.2106,-0.4133 -0.311,-0.874 -0.2915,-1.3374 h 8.2151 C 89.4703,10.6547 89.4357,9.90706 89.3444,9.16532 89.2283,8.32883 88.9208,7.53038 88.446,6.832 87.9686,6.1055 87.2967,5.5277 86.5069,5.16442 85.6703,4.80521 84.7673,4.6268 83.8569,4.64088 c -0.7436,-0.02999 -1.4854,0.0934 -2.1793,0.3625 -0.6939,0.26909 -1.3249,0.67814 -1.8539,1.20166 -1.0342,1.04062 -1.5512,2.53369 -1.5512,4.49216 0,2.0812 0.5731,3.5894 1.7193,4.5244 1.118,0.9158 2.5234,1.4079 3.9685,1.3897 0.7846,0.0458 1.5699,-0.0777 2.3026,-0.3621 0.7327,-0.2844 1.3957,-0.723 1.9439,-1.2861 0.4826,-0.4744 0.8363,-1.0639 1.0277,-1.7129 z m -3.988,-5.52626 c 0.2327,-0.22303 0.509,-0.39556 0.8115,-0.50679 0.3026,-0.11122 0.6248,-0.15873 0.9466,-0.13956 0.6389,-0.02099 1.2629,0.19546 1.7516,0.60757 0.244,0.22779 0.4392,0.50282 0.5736,0.80838 0.1345,0.30555 0.2054,0.63526 0.2084,0.96907 h -5.0803 c 0.0723,-0.64839 0.3484,-1.25714 0.7886,-1.73867 z"
       id="path22"
       inkscape:connector-curvature="0"
       style="fill:#2d3277" />
    <path
       d="M 77.0709,16.3138 H 74.3627 V 9.48833 C 74.3931,9.21418 74.3635,8.93668 74.2759,8.67513 74.1883,8.41358 74.0448,8.17424 73.8553,7.97374 73.6659,7.77324 73.4351,7.61638 73.1789,7.51406 72.9228,7.41174 72.6474,7.36641 72.372,7.38123 72.0953,7.37274 71.8199,7.42185 71.5633,7.52543 71.3066,7.62901 71.0743,7.7848 70.881,7.98292 70.6878,8.18104 70.5378,8.41716 70.4406,8.67632 70.3435,8.93547 70.3012,9.21199 70.3166,9.48833 V 16.3138 H 67.6213 V 9.48833 C 67.6537,9.21545 67.626,8.93878 67.5404,8.67768 67.4547,8.41657 67.313,8.17732 67.1253,7.97665 66.9375,7.77598 66.7082,7.61873 66.4534,7.51588 66.1986,7.41304 65.9244,7.36708 65.6499,7.38123 65.3728,7.37075 65.0965,7.4185 64.8389,7.52138 64.5813,7.62426 64.3482,7.78 64.1545,7.97854 c -0.1937,0.19855 -0.3436,0.43549 -0.44,0.69554 -0.0965,0.26005 -0.1373,0.53744 -0.12,0.81425 V 16.3138 H 60.8799 V 9.55296 c 0,-2.81808 1.8679,-4.95102 4.77,-4.95102 0.6446,-0.01643 1.2841,0.11686 1.8684,0.38939 0.5843,0.27253 1.0975,0.67687 1.4991,1.18123 0.4097,-0.49683 0.9253,-0.89573 1.5091,-1.16749 0.5837,-0.27176 1.2209,-0.4095 1.8649,-0.40313 2.9538,0 4.6989,2.04245 4.6989,4.95102 z"
       id="path24"
       inkscape:connector-curvature="0"
       style="fill:#2d3277" />
    <path
       d="m 131.609,1.07285 c 0,0 -2.986,-0.316707 -2.986,2.08771 v 3.17357 c -0.317,-0.518 -0.762,-0.94544 -1.292,-1.24099 -0.557,-0.30942 -1.186,-0.46554 -1.823,-0.45244 -0.681,-0.02382 -1.358,0.11365 -1.976,0.4012 -0.618,0.28756 -1.159,0.71705 -1.579,1.25345 -0.938,1.34891 -1.394,2.97495 -1.293,4.61495 -0.064,1.4869 0.416,2.9462 1.351,4.1043 0.899,1.0665 2.663,1.5318 4.227,1.5318 5.468,0 5.404,-4.686 5.404,-4.686 z m -3.554,12.12545 c -0.216,0.3093 -0.508,0.5575 -0.848,0.7206 -0.339,0.1631 -0.715,0.2355 -1.092,0.2102 -0.366,0.0224 -0.732,-0.0526 -1.06,-0.2172 -0.328,-0.1645 -0.606,-0.413 -0.807,-0.72 -0.445,-0.7865 -0.658,-1.6829 -0.615,-2.5854 -0.029,-0.84896 0.182,-1.68893 0.608,-2.42381 0.196,-0.32089 0.476,-0.58205 0.81,-0.75521 0.334,-0.17317 0.709,-0.25175 1.084,-0.22725 0.547,-0.00786 1.078,0.18533 1.493,0.54294 0.698,0.58818 1.041,1.65465 1.041,3.03133 0.047,0.8535 -0.172,1.7006 -0.627,2.4238 z"
       id="path26"
       inkscape:connector-curvature="0"
       style="fill:#2d3277" />
    <path
       d="m 78.7705,22.1504 h 2.2364 l -4.0397,11.421 H 73.9229 L 69.922,22.1504 h 3.18 l 2.2752,8.0342 2.023,-6.9935 c 0.0696,-0.3069 0.2451,-0.5795 0.4957,-0.7698 0.2506,-0.1904 0.5603,-0.2862 0.8746,-0.2709 z m 8.5964,-0.3037 h 0.2521 v 3.0507 l -0.4977,-0.0388 c -0.1486,0 -0.265,0 -0.3555,0 -1.1957,0 -2.0037,0.3878 -2.4109,1.1699 -0.2708,0.6407 -0.3902,1.3352 -0.349,2.0296 v 5.4745 h -2.9926 v -5.8171 c 0,0 -0.3943,-5.8495 6.2114,-5.8495 z m 11.6795,4.5244 c -0.119,-0.8357 -0.4262,-1.6336 -0.8984,-2.3333 -0.4725,-0.7308 -1.1458,-1.3098 -1.939,-1.6676 -0.8352,-0.3645 -1.7389,-0.5452 -2.6501,-0.53 -0.7443,-0.0282 -1.4866,0.096 -2.1813,0.365 -0.6947,0.2689 -1.327,0.677 -1.8583,1.1992 -1.0342,1.047 -1.5513,2.5401 -1.5513,4.5244 0,2.0812 0.5753,3.5937 1.7193,4.5244 1.1212,0.9149 2.5281,1.4067 3.9751,1.3897 0.7846,0.0462 1.57,-0.0771 2.3028,-0.3615 0.7327,-0.2844 1.3957,-0.7232 1.9437,-1.2867 0.4805,-0.4771 0.8357,-1.0654 1.0341,-1.7128 h -3.1542 c -0.1134,0.1675 -0.2506,0.3177 -0.4072,0.446 -0.4885,0.3473 -1.0825,0.5141 -1.6805,0.4718 -0.5532,0.0331 -1.1039,-0.0973 -1.5835,-0.3749 -0.3842,-0.2632 -0.6942,-0.6209 -0.9002,-1.0386 -0.2061,-0.4177 -0.3011,-0.8814 -0.2762,-1.3464 h 8.2151 c 0.0206,-0.7536 -0.0161,-1.5077 -0.1099,-2.2558 z m -8.047,0.5817 c 0.0674,-0.6523 0.3414,-1.266 0.7821,-1.7516 0.2344,-0.2226 0.5118,-0.3947 0.8153,-0.5059 0.3035,-0.1112 0.6265,-0.159 0.9492,-0.1404 0.6389,-0.021 1.2629,0.1954 1.7516,0.6075 0.2442,0.229 0.4395,0.5052 0.5739,0.8118 0.1344,0.3066 0.2052,0.6374 0.2082,0.9721 z M 63.6071,18.156 v 15.3766 h -2.818 V 20.3213 c 0,-2.2687 2.818,-2.1524 2.818,-2.1524 z m 2.3075,3.9815 h 2.9991 v 11.3951 h -3.012 z m 0,-3.71 h 2.9991 v 2.9796 h -3.0055 z"
       id="path28"
       inkscape:connector-curvature="0"
       style="fill:#2d3277" />
  </g>
  <defs
     id="defs35">
    <clipPath
       id="clip0_4875_29553">
      <rect
         width="144"
         height="36.6674"
         id="rect32"
         x="0"
         y="0"
         style="fill:#ffffff" />
    </clipPath>
  </defs>
</svg>
